<?xml version="1.0" encoding="UTF-8"?>
<svg width="1200pt" height="1200pt" version="1.1" viewBox="0 0 1200 1200" xmlns="http://www.w3.org/2000/svg">
 <path d="m961.5 99.984h-723.52c-76.078 0.28125-137.72 61.922-138 138v724.03c0.28125 76.078 61.922 137.72 138 138h723.52c76.312 0 138.24-61.734 138.52-138v-724.03c-0.28125-76.266-62.203-138-138.52-138zm-511.5 443.02c-21.234-24.562-33.562-55.547-35.016-87.984 0-45 36-113.48 81-113.48 45-0.046875 78 68.484 78 113.48-1.4531 32.344-13.594 63.281-34.5 87.984-9.0469 9.375-14.062 21.938-13.969 35.016v249.98c1.125 9.2344-1.7344 18.562-7.9219 25.547-6.1406 6.9844-15 10.969-24.328 10.969s-18.188-3.9844-24.375-10.969-9.0469-16.312-7.875-25.547v-249.98c0.60938-12.609-3.2812-25.031-11.016-35.016zm339.98-56.016c-0.5625 25.125-12.984 48.469-33.469 63-11.531 9.8438-17.953 24.375-17.531 39.516v236.02c1.1719 9.2344-1.6875 18.516-7.875 25.5s-15.047 11.016-24.375 11.016-18.188-4.0312-24.328-11.016c-6.1875-6.9844-9.0469-16.266-7.9219-25.5v-235.5c0.46875-15.141-5.9531-29.672-17.484-39.516-19.688-15.141-31.172-38.672-30.984-63.516v-126.47c-0.9375-5.5312 0.65625-11.156 4.2656-15.375 3.6094-4.2656 8.9062-6.7031 14.484-6.7031s10.875 2.4375 14.484 6.7031c3.6094 4.2188 5.1562 9.8438 4.2656 15.375v78.469c1.3594 7.9219 8.2031 13.641 16.219 13.641s14.859-5.7188 16.266-13.641v-86.484c-0.70312-3.2344 0.09375-6.6562 2.2031-9.2344 2.0625-2.5781 5.2031-4.0781 8.5312-4.0781s6.4688 1.5 8.5781 4.0781 2.9062 6 2.2031 9.2344v86.484c1.3594 7.9219 8.2031 13.641 16.219 13.641s14.859-5.7188 16.266-13.641v-78.469c-0.89062-5.5312 0.65625-11.156 4.2656-15.375 3.6094-4.2656 8.9062-6.7031 14.484-6.7031s10.875 2.4375 14.484 6.7031c3.6094 4.2188 5.1562 9.8438 4.2656 15.375z" fill="#007335"/>
</svg>
