<?xml version="1.0" encoding="UTF-8"?>
<svg width="1200pt" height="1200pt" version="1.1" viewBox="0 0 1200 1200" xmlns="http://www.w3.org/2000/svg">
 <path d="m599.72 60c-27.094 0-60.469 10.781-83.297 32.297l-423.52 399.14c-61.922 58.406-37.688 176.02 82.922 182.86v368.02c0 54.141 47.25 97.688 105.98 97.688h229.64v-267.61c0-28.875 25.219-52.125 56.531-52.125h64.031c31.312 0 56.578 23.25 56.578 52.125v267.61h229.08c58.734 0 105.98-43.547 105.98-97.641v-368.06c104.06 0 154.45-115.41 82.922-182.86l-423.52-399.14c-24.844-23.391-56.25-32.297-83.344-32.297z"/>
</svg>
