<?xml version="1.0" encoding="UTF-8"?>
<svg width="1200pt" height="1200pt" version="1.1" viewBox="0 0 1200 1200" xmlns="http://www.w3.org/2000/svg">
 <path d="m898.82 119.02c-0.84375-3.1875-2.9531-5.9531-5.8125-7.5938l-103.5-59.766c-6-3.4688-13.641-1.4062-17.062 4.5938l-23.906 41.391c-3.375 5.5781-1.4531 13.359 4.1719 16.734l-34.781 60.281 104.44 60.281 34.781-60.234c5.8125 3.1406 13.172 1.0781 16.547-4.7812l23.906-41.391c1.6406-2.8594 2.1094-6.2812 1.2656-9.4688z"/>
 <path d="m789.24 340.03 35.016-60.656c3.4688-6 1.4062-13.641-4.5938-17.062l-124.22-71.719c-5.7188-3.4688-13.828-1.3125-17.062 4.5938 0 0-35.016 60.656-35.016 60.656l145.82 84.234z"/>
 <path d="m443.53 970.18h165.66v-47.812h-201.52v11.953c0 19.781 16.031 35.859 35.859 35.859z"/>
 <path d="m834.84 1030c-18.516-49.406-56.438-158.39-56.812-159.52-1.7344-5.0156-6.4688-8.3906-11.812-8.3906h-71.719c-33.234 0-60.281 27.047-60.281 60.281v71.719c0 19.453-15.844 35.297-35.297 35.297h-293.21c-41.672 0-75.609 33.938-75.609 75.609v32.484c0 6.8906 5.5781 12.516 12.516 12.516h643.13c6.8906 0 12.516-5.5781 12.516-12.516v-32.484c0-37.172-28.734-70.078-63.375-75zm-115.45-54.141c-31.547-0.79688-31.5-47.016 0-47.812 31.547 0.79688 31.5 47.016 0 47.812z"/>
 <path d="m556.4 922.4h-214.18c-32.203 0.14062-56.906-27.844-54.469-59.625h323.11c2.4375 31.781-22.266 59.812-54.469 59.625z"/>
 <path d="m492.52 696.94-18.938 74.812c-3.3281 13.078 4.6406 26.391 17.719 29.719l36.375 9.1875c12.609 3.4688 26.766-4.9219 29.719-17.719l12.938-51.141-77.766-44.906z"/>
 <path d="m388.87 637.08c-0.32812-0.1875-0.5625-0.46875-0.89062-0.65625l-25.734 25.734c-4.6406 4.6406-7.1719 10.781-7.1719 17.297s2.5312 12.656 7.1719 17.297l26.531 26.531c9.0938 9.4688 25.5 9.4688 34.594 0l42.047-42.047-76.5-44.156z"/>
 <path d="m794.11 486.14c2.7188-6.0938 13.734-19.078 10.922-26.297-0.84375-3.1875-2.9531-5.9531-5.8125-7.5938l-35.391-20.438 27.375-47.391c3.4688-5.7656 1.3125-13.828-4.5938-17.062l-165.61-95.578c-6-3.4688-13.641-1.4062-17.062 4.5938l-148.55 257.29 187.26 108.09 36.984-64.031c4.3125 1.7812 37.312 23.438 41.625 22.078 10.828 0.42188 14.719-14.672 20.438-22.875 111.33 51.422 137.9 184.26 51.188 264.1 3.1875 2.2969 7.1719 17.719 8.7188 21.234 0.28125 0.79688 22.359 64.266 41.062 116.3 193.22-115.12 153.66-402.74-48.562-492.42z"/>
 <path d="m635.26 666.37-197.48-114c-17.391-10.031-39.703-4.0312-49.734 13.312-10.031 17.391-4.0312 39.703 13.312 49.734l197.48 114c42 22.875 77.438-37.875 36.422-63.047z"/>
</svg>
