<?xml version="1.0" encoding="UTF-8"?>
<svg width="1200pt" height="1200pt" version="1.1" viewBox="0 0 1200 1200" xmlns="http://www.w3.org/2000/svg">
 <path d="m793.05 770.46c-157.96 226.39-180.78 417.68-180.78 417.68-3.5039 15.793-17.543 15.793-21.059 0 0 0-29.832-191.29-184.27-417.7-128.11-179.02-186.02-249.23-186.02-394.88 0-208.85 166.73-375.57 377.33-375.57 208.85 0 380.84 166.73 380.84 375.57 0 145.66-112.33 287.83-186.04 394.89zm-45.637-387.86c0-80.734-63.18-143.9-145.67-143.9-77.23 0-142.16 63.18-142.16 143.9s64.934 149.18 142.16 149.18c82.5-0.011719 145.67-68.461 145.67-149.18z"/>
</svg>
