<?xml version="1.0" encoding="UTF-8"?>
<svg width="1200pt" height="1200pt" version="1.1" viewBox="0 0 1200 1200" xmlns="http://www.w3.org/2000/svg">
 <path d="m1105.8 484.74v135.14h-383.9v306.89h383.9v129.71h-524.11v-436.6h-157.4v436.6h-32.391v-436.6h-157.4v436.6l-140.34-0.046874v-571.69c17.25 8.25 36.797 12.797 57.422 12.797 45.047 0 86.484-21.797 112.12-57.328 25.594 35.531 67.031 57.328 112.12 57.328 45.047 0 86.484-21.797 112.08-57.328 25.594 35.531 67.031 57.328 112.12 57.328 45.047 0 86.484-21.797 112.08-57.328 25.641 35.531 67.031 57.328 112.12 57.328 45.047 0 86.484-21.797 112.12-57.328 25.594 35.531 67.031 57.328 112.08 57.328 20.578 0 40.078-4.5469 57.422-12.844zm-249.32-433.18 91.172 253.4h184.74l-130.78-226.45c-9.9844-17.344-26.531-26.906-46.594-26.906h-98.531zm-161.53 0 31.453 253.4h186.84l-91.172-253.4zm-157.31 0-31.406 253.4h187.5l-31.406-253.4zm-159.74 0-91.172 253.4h186.79l31.453-253.4h-127.13zm-125.63 253.4 91.172-253.4h-98.578c-20.062 0-36.562 9.5625-46.594 26.906l-130.74 226.5zm-4.7812 32.391h-191.81v34.031c0 54.188 42.891 93.797 95.906 93.797 41.297 0 78.562-23.906 95.906-61.172zm224.21 0h-191.76v66.703c17.344 37.219 54.609 61.078 95.906 61.078 41.25 0 78.562-23.859 95.906-61.125v-66.703zm224.21 0h-191.76v66.703c17.344 37.219 54.609 61.078 95.906 61.078 41.25 0 78.562-23.859 95.906-61.125v-66.703zm224.21 0h-191.81v66.703c17.344 37.219 54.656 61.078 95.906 61.078s78.609-23.906 95.906-61.172v-66.656zm32.391 66.703c17.344 37.219 54.609 61.125 95.906 61.125 52.266 0 95.906-38.859 95.906-93.797v-34.031h-191.76v66.703zm-919.69 724.5v19.875h1134.4v-19.875c0-21.844-17.859-39.703-39.703-39.703h-1055c-21.844 0-39.703 17.859-39.703 39.703zm307.13-300.37v32.531c0 8.9531 7.2656 16.219 16.219 16.219s16.219-7.2656 16.219-16.219v-32.531c0-8.9531-7.2656-16.219-16.219-16.219s-16.219 7.2656-16.219 16.219zm103.97 32.531c0 8.9531 7.2656 16.219 16.219 16.219s16.219-7.2656 16.219-16.219v-32.531c0-8.9531-7.2656-16.219-16.219-16.219s-16.219 7.2656-16.219 16.219zm456.37-138.61-52.078 52.078c-6.3281 6.3281-6.3281 16.594 0 22.922s16.594 6.3281 22.922 0l52.078-52.078c6.3281-6.3281 6.3281-16.594 0-22.922s-16.594-6.3281-22.922 0zm79.219 27.422c6.3281 6.3281 6.3281 16.594 0 22.922l-52.078 52.078c-6.3281 6.3281-16.594 6.3281-22.922 0s-6.3281-16.594 0-22.922l52.078-52.078c6.3281-6.3281 16.594-6.3281 22.922 0z" fill="#d94500" fill-rule="evenodd"/>
</svg>
