<?xml version="1.0" encoding="UTF-8"?>
<svg width="1200pt" height="1200pt" version="1.1" viewBox="0 0 1200 1200" xmlns="http://www.w3.org/2000/svg">
 <path d="m975.6 343.2c0 12.594-10.211 22.801-22.801 22.801-12.594 0-22.801-10.207-22.801-22.801 0-12.59 10.207-22.801 22.801-22.801 12.59 0 22.801 10.211 22.801 22.801"/>
 <path d="m805.2 343.2c0 12.594-10.207 22.801-22.801 22.801-12.59 0-22.797-10.207-22.797-22.801 0-12.59 10.207-22.801 22.797-22.801 12.594 0 22.801 10.211 22.801 22.801"/>
 <path d="m913.2 200.4c-15.602-1.1992-30-2.3984-45.602-2.3984-15.602 0-30 1.1992-45.602 2.3984l-45.602 3.6016-19.199 78h222l-20.398-78z"/>
 <path d="m980.4 30h-759.6c-105.6 0-189.6 85.199-189.6 189.6v759.6c0 105.6 85.199 189.6 189.6 189.6h759.6c105.6 0 189.6-85.199 189.6-189.6v-759.6c0-104.4-85.199-189.6-189.6-189.6zm-530.4 184.8c48 0 86.398 38.398 86.398 86.398s-38.398 86.398-86.398 86.398-86.398-38.398-86.398-86.398 38.398-86.398 86.398-86.398zm-20.398 820.8c-134.4 0-243.6-109.2-243.6-243.6 0-99.602 60-184.8 145.2-223.2l6 82.801c-45.602 30-74.398 81.602-74.398 140.4 0 92.398 75.602 168 168 168 74.398 0 136.8-48 159.6-114h78c-26.402 108-123.6 189.6-238.8 189.6zm411.6-4.8008h-36c-13.199 0-24-8.3984-27.602-21.602l-54-208.8c-2.3984-8.3984-9.6016-14.398-18-14.398h-213.6c-49.199 0-90-38.398-93.602-87.602l-15.602-229.2c-2.3984-33.602 24-61.199 57.602-61.199h37.199c28.801 0 52.801 20.398 57.602 48l14.398 82.801 160.8 19.199c6 1.1992 10.801 6 10.801 12v25.199c0 7.1992-6 13.199-13.199 13.199l-148.8-2.3984 6 33.602c1.1992 8.3984 8.3984 14.398 16.801 15.602l154.8 15.602c32.398 3.6016 58.801 26.398 64.801 57.602l61.199 272.4c3.6016 16.797-7.1953 29.996-21.598 29.996zm189.6-729.6c0 6-4.8008 12-12 12h-1.1992l7.1992 56.398c0 15.602-9.6016 27.602-22.801 32.398v36c0 7.1992-6 13.199-13.199 13.199h-16.801c-7.1992 0-13.199-6-13.199-13.199v-33.602h-181.2v33.602c0 7.1992-6 13.199-13.199 13.199h-16.801c-7.1992 0-13.199-6-13.199-13.199v-36c-13.199-4.8008-22.801-18-22.801-33.602l8.3984-55.199h-2.3984c-6 0-12-4.8008-12-12v-19.199c0-6 4.8008-12 12-12h12l19.199-81.602c3.6016-9.6016 10.801-15.602 20.398-15.602l51.602-3.6016c15.602-1.1992 32.398-2.3984 48-2.3984 15.602 0 32.398 1.1992 48 2.3984l51.602 3.6016c9.6016 1.1992 18 7.1992 20.398 15.602l21.602 81.602h10.801c6 0 12 4.8008 12 12l-0.003906 19.203z"/>
</svg>
