<?xml version="1.0" encoding="UTF-8"?>
<svg width="1200pt" height="1200pt" version="1.1" viewBox="0 0 1200 1200" xmlns="http://www.w3.org/2000/svg">
 <path d="m571.77 328.81h56.508c8.3711 0 15.156-6.7852 15.156-15.156v-10.383c0-6.5078-5.2773-11.781-11.781-11.781h-63.254c-6.5078 0-11.781 5.2773-11.781 11.781v10.383c-0.003907 8.3711 6.7812 15.156 15.152 15.156z" fill="#00449e"/>
 <path d="m506.75 396.25v491.97c-0.042968 11.246-9.0938 20.297-20.34 20.297h-299.82c-5.3086 0-10.148-3.8164-10.68-9.0977-0.61328-6.0742 4.1484-11.199 10.094-11.199h122.15c3.3633 0 6.0898-2.7266 6.0898-6.0898v-199.04c0-5.2695 4.3125-9.582 9.582-9.582h25.898v208.62c0 3.3633 2.7266 6.0898 6.0898 6.0898s6.0898-2.7266 6.0898-6.0898v-208.62h90c3.3711 0 6.0898-2.7188 6.0898-6.0898 0-3.3711-2.7188-6.0898-6.0898-6.0898l-172.05 0.007812c-7.793 0-14.168 6.332-14.168 14.168v16.32c0 1.0547-0.64844 1.543-1.0547 1.7461s-1.2188 0.44531-2.0703-0.16406l-63.57-45.508c-0.69141-0.48828-0.8125-1.2188-0.8125-1.582 0-0.40625 0.12109-1.0977 0.8125-1.625l63.57-45.508c0.85156-0.60938 1.6641-0.36719 2.0703-0.16406s1.0547 0.73047 1.0547 1.7852v16.32c0 7.8008 6.3242 14.129 14.129 14.129h172.08c3.3711 0 6.0898-2.7188 6.0898-6.0898 0-3.3281-2.7188-6.0898-6.0898-6.0898h-90v-226.28c0-4.832 3.9375-8.7266 8.7266-8.7266h123.94c6.7266 0 12.18 5.4531 12.18 12.18z" fill="#00449e"/>
 <path d="m829.41 371.88c11.539 0 20.895 9.3555 20.895 20.895v226.31h25.934c5.2852 0 9.5703-4.2852 9.5703-9.5703v-294.51c0-12.992-10.531-23.52-23.52-23.52h-194.89c-6.5078 0-11.781 5.2773-11.781 11.781v10.383c0 15.098-12.238 27.336-27.336 27.336h-22.168v13.844c0 3.3633-2.7266 6.0898-6.0898 6.0898-3.3633 0-6.0898-2.7266-6.0898-6.0898v-13.844h-22.164c-15.098 0-27.336-12.238-27.336-27.336v-10.383c0-6.5078-5.2734-11.781-11.781-11.781h-194.89c-12.992 0-23.523 10.531-23.523 23.523v294.51c0 5.2852 4.2852 9.5703 9.5703 9.5703h25.934v-226.31c0-11.539 9.3555-20.895 20.895-20.895z" fill="#00449e"/>
 <path d="m1024.1 899.41c-0.53125 5.2812-5.3711 9.0977-10.68 9.0977h-299.78c-11.246 0-20.297-9.0547-20.34-20.297v-491.97c0-6.7266 5.4531-12.18 12.18-12.18h123.94c4.7891 0 8.7266 3.8984 8.7266 8.7266v226.28h-90c-3.3281 0-6.0898 2.7617-6.0898 6.0898 0 3.3672 2.7578 6.0898 6.0898 6.0898h172.04c7.793 0 14.168-6.375 14.168-14.168v-16.277c0-1.0547 0.64844-1.582 1.0547-1.7852s1.2188-0.44531 2.0703 0.16406l63.574 45.508c0.73047 0.52734 0.8125 1.2188 0.8125 1.625 0 0.36719-0.082031 1.0977-0.8125 1.582l-63.574 45.508c-0.85156 0.60938-1.6641 0.36719-2.0703 0.16406-0.40625-0.20312-1.0547-0.69141-1.0547-1.7461v-16.32c0-7.8359-6.375-14.168-14.168-14.168h-172.04c-3.3281 0-6.0898 2.7188-6.0898 6.0898 0 3.3711 2.7578 6.0898 6.0898 6.0898h90v208.62c0 3.3633 2.7266 6.0898 6.0898 6.0898s6.0898-2.7266 6.0898-6.0898v-208.62h25.938c5.2695 0 9.5391 4.2695 9.5391 9.5391v199.08c0 3.3633 2.7266 6.0898 6.0898 6.0898h122.11c5.9531-0.007812 10.711 5.1211 10.098 11.191z" fill="#00449e"/>
 <path d="m600.02 420.63c-8.1875 0-15.887-3.1875-21.676-8.9766-1.6094-1.6094-2.4961-3.75-2.4961-6.0273s0.88672-4.418 2.4961-6.0273c1.6133-1.6094 3.7539-2.4961 6.0273-2.4961 2.2773 0 4.418 0.88672 6.0273 2.4961 2.4375 2.4336 5.9414 3.832 9.6211 3.832 3.6797 0 7.1836-1.3945 9.6172-3.8281 1.6094-1.6094 3.75-2.4961 6.0273-2.4961 2.2773 0 4.418 0.88672 6.0312 2.4961 1.6094 1.6094 2.4961 3.75 2.4961 6.0273s-0.88672 4.418-2.4961 6.0273c-5.7891 5.7852-13.488 8.9727-21.676 8.9727z" fill="#00449e"/>
 <path d="m600.02 452.62c-16.734 0-32.469-6.5156-44.301-18.352-1.6094-1.6094-2.4961-3.75-2.4961-6.0273s0.88672-4.418 2.4961-6.0273c1.6133-1.6094 3.7539-2.4961 6.0273-2.4961 2.2773 0 4.418 0.88672 6.0273 2.4961 8.6133 8.6133 20.066 13.355 32.246 13.355 12.18 0 23.633-4.7422 32.246-13.355 1.6133-1.6094 3.7539-2.4961 6.0273-2.4961 2.2773 0 4.418 0.88672 6.0273 2.4961s2.4961 3.75 2.4961 6.0273-0.88672 4.418-2.4961 6.0273c-11.832 11.836-27.566 18.352-44.301 18.352z" fill="#00449e"/>
 <path d="m600.02 484.88c-25.391 0-49.23-9.8594-67.137-27.766-1.6094-1.6094-2.4961-3.75-2.4961-6.0273 0-2.2773 0.88672-4.418 2.4961-6.0273 1.6133-1.6094 3.7539-2.4961 6.0273-2.4961 2.2773 0 4.418 0.88672 6.0273 2.4961 14.688 14.688 34.25 22.777 55.082 22.777 20.832 0 40.395-8.0898 55.082-22.777 1.6133-1.6094 3.7539-2.4961 6.0273-2.4961 2.2773 0 4.418 0.88672 6.0273 2.4961s2.4961 3.75 2.4961 6.0273c0 2.2773-0.88672 4.418-2.4961 6.0273-17.906 17.906-41.746 27.766-67.137 27.766z" fill="#00449e"/>
</svg>
