<?xml version="1.0" encoding="UTF-8"?>
<svg width="1200pt" height="1200pt" version="1.1" viewBox="0 0 1200 1200" xmlns="http://www.w3.org/2000/svg">
 <path d="m504 948c62.398-14.398 116.4-48 157.2-94.801l-33.602-80.398c-30 50.398-80.398 88.801-140.4 102-118.8 27.598-238.8-46.801-266.4-166.8-19.199-82.801 10.801-165.6 70.801-217.2l-2.3984-90c-110.4 63.602-171.6 193.2-141.6 324 37.199 159.6 196.8 259.2 356.4 223.2z" fill="#00449e"/>
 <path d="m463.2 280.8h-39.602c-21.602 0-40.801 8.3984-55.199 24-14.398 15.602-22.801 34.801-21.602 56.398l4.8008 218.4c0 22.801 10.801 44.398 30 58.801 18 14.398 42 19.199 64.801 14.398l176.4-40.797 97.199 236.4c10.801 25.199 37.199 38.398 62.398 32.398 2.3984-1.1992 6-1.1992 8.3984-2.3984 27.602-12 40.801-43.199 30-70.801l-105.6-256.8c-15.602-37.199-55.199-57.602-94.801-49.199l-70.793 14.402-3.6016-87.602 19.199 10.801c10.801 6 22.801 7.1992 34.801 4.8008l87.602-20.398c26.398-6 43.199-32.398 37.199-60-6-27.602-32.398-43.199-60-37.199l-69.602 15.602s-74.398-42-85.199-48c-8.3984-3.6055-28.801-13.203-46.801-13.203z" fill="#00449e"/>
 <path d="m550.07 127.35c7.207 60.547-36.031 115.47-96.578 122.68-60.543 7.207-115.47-36.031-122.68-96.574-7.207-60.547 36.035-115.47 96.578-122.68 60.547-7.207 115.47 36.035 122.68 96.578" fill="#00449e"/>
 <path d="m1054.8 882-925.2 219.6c-39.602 9.6016-33.602 68.398 8.3984 68.398h925.2c19.199 0 34.801-15.602 34.801-34.801v-219.6c-1.1992-21.602-21.602-38.402-43.199-33.602z" fill="#00449e"/>
</svg>
