<?xml version="1.0" encoding="UTF-8"?>
<svg width="1200pt" height="1200pt" version="1.1" viewBox="0 0 1200 1200" xmlns="http://www.w3.org/2000/svg">
 <path d="m731.41 578.83 203.87 114.92-0.27344 0.007812h0.003907c-6.6211 0.21094-12.641 3.8984-15.836 9.6992-3.1953 5.8047-3.0898 12.863 0.27734 18.566 3.3633 5.707 9.4922 9.2148 16.117 9.2266 0.19141 0 0.38281-0.003906 0.57813-0.007812l67.547-2.0312-0.003906-0.003907c0.68359-0.070312 1.3633-0.17969 2.0352-0.32812 0.83984-0.078125 1.668-0.21484 2.4883-0.40625 1.5-0.58594 2.9844-1.2188 4.4492-1.8984 0.73828-0.48438 1.4414-1.0234 2.1016-1.6055 0.60547-0.42969 1.1836-0.89453 1.7344-1.3945 0.74609-0.82422 1.4219-1.7109 2.0156-2.6562 0.29688-0.4375 0.67969-0.77734 0.94531-1.2461l0.042968-0.097656 0.039063-0.054688c0.0625-0.11328 0.078125-0.24219 0.14062-0.35547h-0.003906c0.625-1.1875 1.1172-2.4453 1.4688-3.7422 0.11328-0.41406 0.18359-0.82812 0.26953-1.2461 0.21484-1.0547 0.33594-2.125 0.36719-3.1992 0.011719-0.42578 0.039063-0.83984 0.019532-1.2656v-0.003907c-0.042969-1.4102-0.24609-2.8086-0.60156-4.1758l-0.035156-0.14453c-0.41016-1.3906-0.98047-2.7305-1.6992-3.9883-0.082031-0.14844-0.10938-0.3125-0.19531-0.45703l-35.457-60.105c-3.3945-5.7734-9.6094-9.2969-16.309-9.2461-6.6953 0.050781-12.855 3.6758-16.16 9.5-3.3047 5.8281-3.2461 12.973 0.14844 18.746l-201.66-113.67h-0.003906c-5.8359-3.2891-12.98-3.2148-18.75 0.19141-5.7656 3.4102-9.2773 9.6367-9.2109 16.332 0.070312 6.6992 3.707 12.855 9.543 16.145z" fill="#00449e"/>
 <path d="m84.934 222.8 163.18 86.918c-6.2422 1.0273-11.539 5.1406-14.082 10.93-2.543 5.7891-1.9922 12.473 1.4688 17.766 3.4648 5.293 9.3672 8.4766 15.688 8.4648 0.19141 0 0.38281-0.003906 0.57812-0.007812l67.547-2.0312v-0.003907c0.78125-0.074219 1.5547-0.19922 2.3164-0.375 1.7383-0.09375 3.4297-0.60547 4.9297-1.4883 0.625-0.23828 1.2383-0.51172 1.832-0.81641 0.97656-0.63281 1.8945-1.3516 2.7383-2.1562 0.36328-0.32422 0.79297-0.55469 1.1328-0.91016 1.1328-1.1797 2.1094-2.5039 2.8984-3.9375l0.042969-0.10547 0.09375-0.13281h0.003907c0.66406-1.2812 1.1797-2.6328 1.5352-4.0312 0.089844-0.34375 0.125-0.69141 0.19531-1.0352v-0.003906c0.23047-1.0977 0.35938-2.2148 0.38281-3.3398 0.007812-0.4375 0.011719-0.86328-0.011719-1.3008l0.003906 0.003906c-0.058594-1.168-0.22656-2.3242-0.5-3.4609-0.070312-0.28906-0.09375-0.57813-0.17578-0.86328-0.41016-1.3984-0.98047-2.7422-1.7031-4.0078-0.054688-0.097656-0.074219-0.20703-0.12891-0.30469l-35.461-60.105c-3.4023-5.7695-9.625-9.2852-16.324-9.2227-6.6992 0.0625-12.855 3.6953-16.148 9.5273-3.2969 5.832-3.2305 12.977 0.17188 18.75l1.5859 2.6914-166.16-88.504c-5.9102-3.1523-13.055-2.9102-18.738 0.63672s-9.0469 9.8516-8.8164 16.547c0.22656 6.6953 4.0078 12.762 9.9219 15.91z" fill="#00449e"/>
 <path d="m1176.5 877.88-643.63-259.53c38.523-1.7539 75.289-16.637 104.18-42.176 28.898-25.535 48.188-60.191 54.672-98.207 6.4805-38.016-0.23828-77.102-19.043-110.77-18.805-33.668-48.559-59.891-84.324-74.312s-75.391-16.176-112.29-4.9648c-36.898 11.207-68.855 34.703-90.555 66.578-21.703 31.879-31.848 70.223-28.746 108.66 3.0977 38.441 19.258 74.664 45.785 102.65l-325.29-131.17c-17.336-6.9922-37.016-4.9141-52.508 5.543-15.496 10.457-24.781 27.93-24.781 46.625v469.45c0.015625 14.914 5.9492 29.211 16.492 39.758 10.547 10.543 24.844 16.477 39.758 16.492h150v-84.375c0-6.6992 3.5742-12.887 9.375-16.238 5.8008-3.3477 12.949-3.3477 18.75 0 5.8008 3.3516 9.375 9.5391 9.375 16.238v84.375h56.25v-84.375c0-6.6992 3.5742-12.887 9.375-16.238 5.8008-3.3477 12.949-3.3477 18.75 0 5.8008 3.3516 9.375 9.5391 9.375 16.238v84.375h56.25v-84.375c0-6.6992 3.5742-12.887 9.375-16.238 5.8008-3.3477 12.949-3.3477 18.75 0 5.8008 3.3516 9.375 9.5391 9.375 16.238v84.375h56.25v-84.375c0-6.6992 3.5742-12.887 9.375-16.238 5.8008-3.3477 12.949-3.3477 18.75 0 5.8008 3.3516 9.375 9.5391 9.375 16.238v84.375h56.25v-84.375c0-6.6992 3.5742-12.887 9.375-16.238 5.8008-3.3477 12.949-3.3477 18.75 0 5.8008 3.3516 9.375 9.5391 9.375 16.238v84.375h56.25v-84.375c0-6.6992 3.5742-12.887 9.375-16.238 5.8008-3.3477 12.949-3.3477 18.75 0 5.8008 3.3516 9.375 9.5391 9.375 16.238v84.375h56.25v-84.375c0-6.6992 3.5742-12.887 9.375-16.238 5.8008-3.3477 12.949-3.3477 18.75 0 5.8008 3.3516 9.375 9.5391 9.375 16.238v84.375h56.25v-84.375c0-6.6992 3.5742-12.887 9.375-16.238 5.8008-3.3477 12.949-3.3477 18.75 0 5.8008 3.3516 9.375 9.5391 9.375 16.238v84.375h56.25v-84.375c0-6.6992 3.5742-12.887 9.375-16.238 5.8008-3.3477 12.949-3.3477 18.75 0 5.8008 3.3516 9.375 9.5391 9.375 16.238v84.375h168.75c9.9414-0.011719 19.473-3.9648 26.504-10.996s10.984-16.562 10.996-26.504v-62.344c0.023438-7.4805-2.2031-14.797-6.3867-21-4.1875-6.2031-10.141-11.004-17.086-13.781zm-782.78-427.88c0-34.809 13.828-68.195 38.441-92.809 24.613-24.613 58-38.441 92.809-38.441s68.195 13.828 92.809 38.441c24.613 24.613 38.441 58 38.441 92.809s-13.828 68.191-38.441 92.809c-24.613 24.613-58 38.441-92.809 38.441-34.797-0.039062-68.16-13.879-92.766-38.484s-38.445-57.969-38.484-92.766z" fill="#00449e"/>
</svg>
