<?xml version="1.0" encoding="UTF-8"?>
<svg width="1200pt" height="1200pt" version="1.1" viewBox="0 0 1200 1200" xmlns="http://www.w3.org/2000/svg">
 <path d="m1173.6 442.78c-15.609-30-52.781-42-84-24l-85.219 45.609-48-57.609c-34.781-42-79.219-73.219-130.78-88.781l-42-14.391c-57.609-19.219-120-19.219-177.61 1.2188l-108 37.219c-15.609 6-28.781 16.781-36 33.609l-60 139.22c-14.391 31.219 0 67.219 31.219 81.609s67.219 0 81.609-31.219l51.609-115.22 78-26.391c-26.391 78-63.609 201.61-62.391 236.39v1.2188c0 13.219-2.3906 26.391-7.2188 37.219l-37.219 129.52c-4.7812 15.609-20.391 27.609-37.219 27.609h-162c-34.781 0-66 22.781-73.219 56.391-12 48 26.391 91.219 72 91.219h246c31.219 0 60-20.391 69.609-51.609l50.391-116.39c2.3906-6 9.6094-8.3906 14.391-4.7812l84 57.609c13.219 8.3906 22.781 22.781 26.391 38.391l46.828 201.56c9.6094 31.219 38.391 55.219 72 55.219 6 0 12 0 16.781-1.2188 38.391-9.6094 63.609-49.219 52.781-87.609l-60-252c-4.7812-15.609-13.219-28.781-24-38.391l-129.56-127.22c21.609-48 44.391-115.22 66-180l70.781 86.391c12 14.391 30 22.781 48 22.781 9.6094 0 20.391-2.3906 28.781-7.2188l129.66-70.734c32.391-16.781 44.391-54 27.609-85.219z"/>
 <path d="m1012.9 115.08c16.594 70.312-26.953 140.76-97.266 157.36-70.312 16.598-140.72-26.906-157.36-97.219-16.594-70.312 26.953-140.76 97.266-157.36s140.72 26.953 157.36 97.219"/>
 <path d="m114 417.61h248.39c9.6094 0 18-8.3906 18-18s-8.3906-18-18-18h-248.39c-9.6094 0-18 8.3906-18 18s8.3906 18 18 18z"/>
 <path d="m284.39 757.22h192c9.6094 0 18-8.3906 18-18s-8.3906-18-18-18h-192c-9.6094 0-18 8.3906-18 18 0 9.5625 8.3906 18 18 18z"/>
 <path d="m218.39 721.22h-72c-9.6094 0-18 8.3906-18 18s8.3906 18 18 18h72c9.6094 0 18-8.3906 18-18s-8.3906-18-18-18z"/>
 <path d="m338.39 577.22c0-9.6094-8.3906-18-18-18h-152.39c-9.6094 0-18 8.3906-18 18s8.3906 18 18 18h152.39c9.6094 0 18-8.4375 18-18z"/>
 <path d="m105.61 559.22h-20.391c-9.6094 0-18 8.3906-18 18s8.3906 18 18 18h20.391c9.6094 0 18-8.3906 18-18s-8.3906-18-18-18z"/>
</svg>
