<?xml version="1.0" encoding="UTF-8"?>
<svg width="1200pt" height="1200pt" version="1.1" viewBox="0 0 1200 1200" xmlns="http://www.w3.org/2000/svg">
 <path d="m162.5 370c0.53906-3.7344-0.078125-7.5469-1.7734-10.922-1.6953-3.3711-4.3867-6.1445-7.707-7.9375-5.5508-3.6367-12.562-4.2266-18.645-1.5742s-10.422 8.1914-11.535 14.734c-5.1172 28.074-3.3984 56.973 5.0117 84.246 8.4102 27.27 23.266 52.117 43.309 72.434 3.8477 3.8594 9.2812 5.6953 14.68 4.9609 6.2227-0.72266 11.758-4.2812 15-9.6406 2.4141-3.6445 3.5273-7.9922 3.1641-12.348-0.36328-4.3555-2.1836-8.4609-5.1641-11.652-31.543-32.277-45.141-78.035-36.34-122.3z" fill="#007335"/>
 <path d="m311.18 244.82 0.57812-2.6602h0.003907c1.332-5.8906-0.23438-12.062-4.2227-16.602-3.293-3.9141-8.1406-6.1875-13.258-6.2188h-1.4219c-20.109 1.668-39.875 6.1992-58.699 13.461-4.8594 1.875-8.5938 5.8672-10.141 10.84-1.8359 5.4688-1.1016 11.477 2 16.34l1.5195 2.3594c2.1445 3.5195 5.4336 6.1953 9.3125 7.582 3.8789 1.3867 8.1211 1.3984 12.008 0.039063 14.199-5.4258 29.043-8.9766 44.16-10.562 4.1914-0.16016 8.2188-1.668 11.488-4.293 3.2695-2.625 5.6094-6.2305 6.6719-10.285z" fill="#007335"/>
 <path d="m908.1 140.14h-0.10156c-33.195-0.054687-66.062 6.5195-96.684 19.344-30.617 12.82-58.363 31.625-81.617 55.316l-101.14 102.38c-7.6367 7.375-17.84 11.496-28.457 11.496-10.617 0-20.82-4.1211-28.461-11.496l-101.16-102.4c-31.07-31.652-70.012-54.457-112.82-66.07-42.805-11.609-87.934-11.609-130.74 0-42.805 11.613-81.746 34.418-112.82 66.07-47.434 48.195-74.016 113.11-74.016 180.73 0 67.621 26.582 132.53 74.016 180.73l471.66 477.76c3.75 3.8281 8.8789 5.9883 14.238 6 5.3711 0 10.52-2.1641 14.281-6l471.72-477.74c47.398-48.211 73.957-113.11 73.957-180.72 0-67.605-26.559-132.51-73.957-180.72-23.18-23.676-50.859-42.477-81.41-55.301-30.551-12.824-63.355-19.414-96.488-19.379zm-672.54 396h-0.003906c-9.5625 16.336-26.223 27.254-45.02 29.5-2.3281 0.27734-4.6719 0.41797-7.0195 0.41797-15.324 0.046875-30.023-6.0625-40.801-16.957-24.559-24.898-42.766-55.344-53.078-88.762-10.312-33.422-12.426-68.832-6.1602-103.24 3.5078-19.395 16.301-35.836 34.238-44 17.754-8.0469 38.32-6.875 55.043 3.1367 10.594 5.9883 19.07 15.117 24.262 26.125 5.1875 11.008 6.8359 23.352 4.7148 35.336-6.1875 31.309 3.4375 63.656 25.742 86.48 9.1367 9.3945 14.891 21.562 16.355 34.586 1.4609 13.027-1.4492 26.168-8.2773 37.355zm7.7383-225.08v-0.003906c-19.957-0.085938-38.512-10.27-49.301-27.059l-1.5195-2.3789c-9.6641-14.953-12.047-33.473-6.4805-50.383 5.2852-16.438 17.738-29.594 33.859-35.777 22.453-8.6406 46.023-14.027 70-16 18.258-1.4531 36.105 5.9297 48 19.859 12.219 14.145 17.051 33.223 13.039 51.48l-0.60156 2.6797h0.003906c-2.9023 12.277-9.625 23.32-19.199 31.539-9.5742 8.2188-21.504 13.191-34.082 14.199-11.566 1.2344-22.926 3.9766-33.781 8.1602-6.3672 2.418-13.125 3.6602-19.938 3.6602zm656.7 308.94h-149.3c-13.375-0.003906-25.863-6.6914-33.277-17.82l-14.941-22.422-63.641 127.28c-3.3203 6.6367-8.4219 12.219-14.734 16.121s-13.586 5.9727-21.004 5.9805h-2.4414c-7.8242-0.47266-15.34-3.2344-21.609-7.9414-6.2695-4.7109-11.016-11.156-13.652-18.539l-67.102-187.86-34.719 81.039c-3.0938 7.1797-8.2266 13.293-14.758 17.586-6.5352 4.293-14.184 6.5781-22 6.5742h-126.82c-7.1445 0-13.746-3.8125-17.32-10-3.5742-6.1875-3.5742-13.812 0-20 3.5742-6.1875 10.176-10 17.32-10h126.82l34.719-81.039c4.25-9.9141 12.32-17.688 22.383-21.566 10.062-3.8789 21.262-3.5273 31.062 0.96875 9.8008 4.4961 17.371 12.762 20.996 22.918l67.102 187.86 63.621-127.26h-0.003906c6.3789-12.754 19.062-21.148 33.293-22.035 14.23-0.88672 27.859 5.8711 35.77 17.734l14.938 22.422h149.3c7.1445 0 13.746 3.8125 17.32 10 3.5742 6.1875 3.5742 13.812 0 20-3.5742 6.1875-10.176 10-17.32 10z" fill="#007335"/>
</svg>
