<?xml version="1.0" encoding="UTF-8"?>
<svg width="1200pt" height="1200pt" version="1.1" viewBox="0 0 1200 1200" xmlns="http://www.w3.org/2000/svg">
 <path d="m449 754.21c0 26.684-21.633 48.316-48.32 48.316s-48.32-21.633-48.32-48.316c0-26.688 21.633-48.32 48.32-48.32s48.32 21.633 48.32 48.32zm259.71-9.0625h-217.43c-5.0039 0-9.0586 4.0586-9.0586 9.0586 0 5.0039 4.0586 9.0586 9.0586 9.0586h217.43c5.0039 0 9.0586-4.0586 9.0586-9.0586s-4.0586-9.0586-9.0625-9.0586zm0 36.238h-217.43c-5.0039 0-9.0586 4.0586-9.0586 9.0586s4.0586 9.0625 9.0586 9.0625h217.43c5.0039 0 9.0586-4.0586 9.0586-9.0625 0-5-4.0586-9.0586-9.0625-9.0586zm0-72.477h-217.43c-5.0039 0-9.0586 4.0586-9.0586 9.0625 0 5 4.0586 9.0586 9.0586 9.0586h217.43c5.0039 0 9.0586-4.0586 9.0586-9.0586 0-5.0039-4.0586-9.0625-9.0625-9.0625zm431.29-108.91c0 298.23-241.77 540-540 540s-540-241.77-540-540 241.77-540 540-540 540 241.77 540 540zm-45.957 0c0-272.41-221.62-494.04-494.04-494.04-272.41 0-494.04 221.63-494.04 494.04 0 272.42 221.63 494.04 494.04 494.04 272.42 0 494.04-221.62 494.04-494.04zm-22.98 0c0 259.75-211.32 471.06-471.06 471.06-259.75 0-471.06-211.32-471.06-471.06s211.32-471.07 471.06-471.07c259.75 0 471.06 211.32 471.06 471.07zm-155.76-241.79c0-61.266-49.664-110.93-110.93-110.93h-408.74c-61.266 0-110.93 49.664-110.93 110.93v509.94h97.867v48.988c0 19.645 15.926 35.57 35.57 35.57h13.414c19.645 0 35.57-15.926 35.57-35.57v-48.988h265.75v48.988c0 19.645 15.926 35.57 35.57 35.57h13.414c19.645 0 35.57-15.926 35.57-35.57v-48.988h97.867zm-115.99 347.68c-26.684 0-48.32 21.633-48.32 48.316 0 26.684 21.633 48.32 48.32 48.32s48.32-21.633 48.32-48.32c0-26.684-21.633-48.316-48.32-48.316zm47.082-93.16v-271.52c0-14.312-11.602-25.914-25.914-25.914h-440.96c-14.312 0-25.914 11.602-25.914 25.914v271.52c0 14.312 11.602 25.914 25.914 25.914h440.96c14.309 0 25.91-11.602 25.91-25.914z"/>
</svg>
