<?xml version="1.0" encoding="UTF-8"?>
<svg width="1200pt" height="1200pt" version="1.1" viewBox="0 0 1200 1200" xmlns="http://www.w3.org/2000/svg">
 <path d="m600 231c-64.773 0-128.4 17.051-184.5 49.438-56.094 32.387-102.68 78.969-135.06 135.07-32.387 56.094-49.438 119.73-49.438 184.5 0 97.867 38.879 191.72 108.08 260.92 69.203 69.203 163.06 108.08 260.92 108.08 97.867 0 191.72-38.879 260.92-108.08s108.08-163.05 108.08-260.92c0-64.773-17.051-128.4-49.434-184.5-32.387-56.094-78.969-102.68-135.07-135.06-56.094-32.387-119.73-49.438-184.5-49.441zm-87.434 103.32 0.003906 0.003906c17.473 0 34.227 6.9336 46.582 19.281 12.355 12.348 19.297 29.09 19.297 46.551-0.003907 17.461-6.9453 34.203-19.297 46.547-12.355 12.348-29.113 19.281-46.582 19.281-17.473 0-34.227-6.9375-46.582-19.281s-19.297-29.086-19.297-46.547c0-17.461 6.9414-34.203 19.297-46.551 12.352-12.344 29.109-19.281 46.582-19.281zm0 137.86c18.25 0 32.941 14.684 32.941 32.918v65.84h86.93c12.164 0 21.957 9.7852 21.957 21.941s-9.793 21.945-21.957 21.945l-86.926 0.003907v32.938h143.31c11.551-0.16797 22.828 5.7227 29.039 16.473l87.855 152.02c9.125 15.797 3.7539 35.855-12.055 44.969-15.809 9.1211-35.879 3.7383-44.996-12.043l-78.359-135.62h-157.71c-14.828 0-27.301-9.6953-31.461-23.105-0.15625-0.50391-0.30078-1.0469-0.44141-1.5547-0.14453-0.50391-0.26953-1.043-0.375-1.6016-0.11328-0.50391-0.20703-1.0586-0.28906-1.6133-0.082032-0.55859-0.15625-1.0859-0.21094-1.6445-0.066406-0.55859-0.074219-1.1172-0.12891-1.6719-0.054688-0.5625-0.054688-1.125-0.054688-1.707v-175.56c0-18.238 14.691-32.914 32.941-32.914zm-45.875 128.82 8.0391 13.895-6.9492 4.0039c-52.051 30.039-74.969 92.945-54.414 149.38 20.555 56.434 78.57 89.898 137.76 79.469 59.191-10.422 102.25-61.707 102.25-121.77v-8.0234h16.047v8.0234c-0.003907 67.742-48.762 125.81-115.52 137.57-58.406 10.293-116.01-17.445-145.02-67.18-4.1484-7.1016-7.707-14.656-10.605-22.609-23.184-63.656 2.7656-134.89 61.465-168.76z" fill="#00449e"/>
</svg>
