<?xml version="1.0" encoding="UTF-8"?>
<svg width="1200pt" height="1200pt" version="1.1" viewBox="0 0 1200 1200" xmlns="http://www.w3.org/2000/svg">
 <path d="m600 55.199c-297.6 0-540 242.4-540 540 0 297.6 242.4 540 540 540s540-242.4 540-540c0-297.6-242.4-540-540-540zm180 558c-21.602 30-48 57.602-76.801 86.398-28.801 28.801-56.398 56.398-86.398 76.801-99.602 70.801-196.8 93.602-238.8 51.602l-38.398-38.398c-9.6016-10.801 4.8008-40.801 32.398-68.398 27.602-27.602 58.801-42 68.398-32.398l34.801 34.801-2.3984-2.3984c24 24 70.801 16.801 121.2-12 21.602-13.199 43.199-32.398 63.602-52.801 20.398-20.398 38.398-39.602 51.602-61.199 31.199-51.602 38.398-99.602 14.398-123.6l2.3984 2.3984-34.801-34.801c-9.6016-9.6016 4.8008-40.801 32.398-68.398 27.602-27.602 58.801-42 68.398-32.398l38.398 38.398c43.207 40.797 19.207 136.8-50.395 236.39z" fill="#00449e"/>
</svg>
