<?xml version="1.0" encoding="UTF-8"?>
<svg width="1200pt" height="1200pt" version="1.1" viewBox="0 0 1200 1200" xmlns="http://www.w3.org/2000/svg">
 <path d="m937.5 300h-60.793l-239.5-165.8c0.078125-0.98828 0.29688-1.9375 0.29688-2.9492 0-20.711-16.789-37.5-37.5-37.5s-37.5 16.789-37.5 37.5c0 1.0078 0.21875 1.957 0.29688 2.9492l-239.5 165.8h-60.793c-20.711 0-37.5 16.789-37.5 37.5l0.003906 768.75c0 20.711 16.789 37.5 37.5 37.5h675c20.711 0 37.5-16.789 37.5-37.5v-768.75c0-20.711-16.789-37.5-37.5-37.5zm-353.43-134.92c4.8477 2.2891 10.207 3.668 15.926 3.668s11.078-1.3789 15.926-3.668l194.89 134.92h-421.63zm315.93 735.29c-118.12-189.56-177.19-219-247.69-127.12-7.4844 9.5703-19.414 22.902-33.297 37.738 6.1133 16.309 12.133 33.273 17.879 51.492 38.25 120.9 82.07 146.19 120.72 168.51l9.4141 5.4766 54.574 32.281h-73.668c-44.062-26.062-101.06-50.438-146.81-195-8.625-27.375-17.438-51.75-26.25-73.125-68.25-165.38-140.06-161.81-188.44-120.56-30 25.688-58.688 66.375-86.438 111.94v-417h600z"/>
 <path d="m825 506.25c0 31.066-25.184 56.25-56.25 56.25s-56.25-25.184-56.25-56.25 25.184-56.25 56.25-56.25 56.25 25.184 56.25 56.25"/>
</svg>
