<?xml version="1.0" encoding="UTF-8"?>
<svg width="1200pt" height="1200pt" version="1.1" viewBox="0 0 1200 1200" xmlns="http://www.w3.org/2000/svg">
 <path d="m588.28 560.25 130.59-155.44h-178.97z" fill="#002c13"/>
 <path d="m1009.9 849.75v-657.28c0-44.062-35.906-79.969-79.969-79.969h-659.81c-44.062 0-79.969 35.906-79.969 79.969v657.28c0 44.062 35.906 79.969 79.969 79.969h659.81c44.062 0 79.969-35.906 79.969-79.969zm-193.31-111.09c-80.531 0-146.16-65.344-146.16-145.69 0-59.719 36.188-111 87.844-133.5l-11.812-37.875-152.53 181.69c-6.8438 8.1562-11.625 5.7188-65.344 5.7188-7.9688 72.844-70.031 129.75-145.22 129.75-80.531 0-146.16-65.344-146.16-145.69 0-108.75 115.78-179.16 212.62-129.56l50.906-76.969-15.844-50.906h-29.344c-21.188 0-21.188-31.875 0-31.875h82.125c21.188 0 21.188 31.875 0 31.875h-19.406l11.625 37.406h201.38l-15.094-48.656c-3.1875-10.219 4.5-20.625 15.281-20.625h69.469c27.938 0 50.719 22.688 50.719 50.625s-21.188 50.625-51.75 50.625c-21.188 0-21.188-31.875 0-31.875 26.812 0 25.406-37.406 1.0312-37.406h-47.719l35.625 114.47c91.031-17.531 173.81 52.5 173.81 142.97 0 80.344-65.531 145.69-146.16 145.69z" fill="#002c13"/>
 <path d="m476.62 480.84c28.406 23.531 47.719 57.656 52.031 96.188h31.406l-47.062-151.22z" fill="#002c13"/>
 <path d="m370.03 584.16 62.062-93.938c-75.938-35.906-162.84 19.781-162.84 102.75 0 62.719 51.188 113.81 114.09 113.81 57.469 0 105.09-42.656 112.88-97.875h-112.88c-12.75 0-20.344-14.156-13.312-24.75z" fill="#002c13"/>
 <path d="m798.47 480.75 33.469 107.53c6.2812 20.156-24.281 29.625-30.562 9.4688l-33.469-107.53c-38.625 18.281-65.438 57.375-65.438 102.75 0 62.719 51.188 113.81 114.09 113.81s114.09-51.094 114.09-113.81c0-68.719-61.594-123.56-132.28-112.22z" fill="#002c13"/>
 <path d="m458.81 507.75-45.75 69.281h83.156c-3.8438-27.469-17.531-51.75-37.5-69.281z" fill="#002c13"/>
 <path d="m555.19 959.06c0-1.7812 3.5625-1.2188-28.125-1.2188v143.72c0 7.7812 6.2812 14.062 14.062 14.062h117.75c7.7812 0 14.062-6.2812 14.062-14.062v-143.72h-28.125v129.66h-89.719v-128.44z" fill="#002c13"/>
</svg>
