<?xml version="1.0" encoding="UTF-8"?>
<svg width="1200pt" height="1200pt" version="1.1" viewBox="0 0 1200 1200" xmlns="http://www.w3.org/2000/svg">
 <path d="m288.02 342.52-24.887-31.094 39.469-5.2695 40.117-5.3633 11.027-1.4648 7.8594 7.8594 131.04 131.05c-7.332-12.793-11.867-27.406-11.867-43.188 0-48.121 39.156-87.254 87.301-87.254 4.8711 0 9.5742 0.66016 14.242 1.4141-15.938-23.137-44.004-39-74.293-40.355-1.4023-0.42187-2.9883-0.42187-4.6094-0.42187l-231.9 0.011718c-1.5859 0-3.2031 0-4.6094 0.42188-43.859 1.9805-83.762 34.031-87.59 75.336-0.17969 2.0508-0.39453 4.4141-0.39453 6.3945v318.31h29.449l46.094-268.99s-0.17969 0-0.17969-0.38281c0-4.4141 3.6016-8.0273 8.2188-8.0273 4.3906 0 8.0039 3.6133 8.2188 8.0273h0.22656l46.094 740.47h62.316v-0.43359-426.53h0.22656v-0.43359h-0.22656c0-4.3438 3.5625-8.2578 8.1367-8.3516 4.5234 0.097656 8.0898 4.0078 8.0898 8.3516h-0.17969v0.43359h0.17969v426.54 0.43359h62.316l18.238-292.5-17.113-291.47z"/>
 <path d="m387.5 232.78c47.809-0.085938 86.484-38.902 86.484-86.617 0-47.664-38.844-86.09-86.484-86.184-47.688 0.097657-86.484 38.52-86.484 86.184 0 47.711 38.629 86.543 86.484 86.617z"/>
 <path d="m898.4 400.04 93 269.68 29.652 0.34766-58.715-312.61c-1.0078-5.6055-2.4102-11.148-3.9844-16.754-13.152-42.191-47.207-73.008-87.816-73.008l-206.78 0.003906c-30.238 0-56.785 17.09-73.812 43.199 37.5 9.7695 65.375 43.645 65.375 84.156 0 15.77-4.5 30.383-11.832 43.188l131.02-131.05 7.8945-7.8594 10.992 1.4648 40.176 5.3633 39.445 5.2695-24.863 31.094-170.16 212.62-17.387 299.69h5.7461l45.84 285.2h47.762v-285.22h14.395v285.2h47.762l45.84-285.2h59.109c13.754 0 23.316-11.125 21.301-24.707l-63.887-435.61c1.4023-1.6094 3.5625-2.4102 5.7461-2.4102 4.4219 0.011719 8.0312 3.2383 8.1875 7.9648z"/>
 <path d="m765.71 231.31v0.32422c0.46875 0 0.96094-0.15625 1.4531-0.15625 0.46875 0 0.96094 0.15625 1.4297 0.15625v-0.32422c46.199-1.6094 83.016-39.371 83.016-85.727 0-46.355-37.031-83.676-83.016-85.285v-0.3125c-0.46875 0-0.96094 0.14453-1.4297 0.14453-0.49219 0-0.98438-0.14453-1.4531-0.14453v0.3125c-45.984 1.6211-83.016 38.93-83.016 85.285 0 46.355 36.816 84.129 83.016 85.727z"/>
 <path d="m503.29 395.05c0 35.773 29.027 64.934 64.801 64.934 35.711 0 64.715-29.16 64.715-64.934 0-35.746-29.004-64.754-64.715-64.754-35.773 0.003906-64.801 29.008-64.801 64.754z"/>
 <path d="m790.38 323.1-163.55 163.61h-117.54l-163.59-163.61-40.117 5.3516 175.48 219.12 34.766 592.26 46.691 0.17969v-320.19-0.34766h12.301v320.35 0.17969h46.691l34.453-593.34 174.59-218.22z"/>
</svg>
