<?xml version="1.0" encoding="UTF-8"?>
<svg width="1200pt" height="1200pt" version="1.1" viewBox="0 0 1200 1200" xmlns="http://www.w3.org/2000/svg">
 <path d="m853.36 451.97-150.71-34.922-81.469 84.984c-7.9688 8.2031-21.047 8.4844-29.344 0.60938l-93.422-89.719c-6-5.0625-3.1406-9.75-7.875-7.4531l-143.06 45.469-127.55 37.641 378.94 104.39 378.52-104.39z" fill="#cc0018"/>
 <path d="m527.11 383.16 78.562 75.234c0.1875-0.42188 75.094-77.859 75.047-78.328l89.719-93.656c20.062-20.812 31.031-48.797 30.469-77.672-0.5625-28.922-12.609-56.391-33.469-76.406-20.906-20.016-48.844-30.938-77.766-30.281-28.922 0.60938-56.391 12.75-76.359 33.656-3.9375 4.125-9.4219 6.4219-15.141 6.3281s-11.156-2.5312-15-6.75c-107.11-94.266-250.45 55.734-149.68 158.16z" fill="#cc0018"/>
 <path d="m1044.6 512.76-409.55 113.06 104.39 128.39c59.766-20.719 331.87-114.75 385.6-133.55z" fill="#cc0018"/>
 <path d="m732.61 799.31c-6.2344 0.046875-12.188-2.7656-16.125-7.6406l-96.938-119.3v425.68l412.4-166.22v-235.08l-292.74 101.3c-2.1094 0.84375-4.3125 1.2656-6.6094 1.2656z" fill="#cc0018"/>
 <path d="m461.58 798.28-295.82-98.625v229.26l412.45 164.95v-420.47l-93.844 118.03h-0.046875c-5.3906 6.7969-14.438 9.5156-22.734 6.8438z" fill="#cc0018"/>
 <path d="m563.11 626.06-409.55-113.06-78.562 112.88 73.594 24.562 5.5781 1.875 306.79 102.14z" fill="#cc0018"/>
</svg>
