<?xml version="1.0" encoding="UTF-8"?>
<svg width="1200pt" height="1200pt" version="1.1" viewBox="0 0 1200 1200" xmlns="http://www.w3.org/2000/svg">
 <path d="m453.6 840h-64.801c-60.469 0-118.46 24.02-161.22 66.781-42.758 42.758-66.777 100.75-66.777 161.22v40.801c0 9.5469 3.793 18.703 10.543 25.453 6.75 6.7539 15.91 10.547 25.457 10.547h447.6c9.5508 0 18.707-3.793 25.457-10.547 6.75-6.75 10.543-15.906 10.543-25.453v-40.801c0.003906-60.262-23.855-118.07-66.352-160.8-42.5-42.727-100.19-66.887-160.45-67.203z"/>
 <path d="m421.2 834c43.922 0 86.043-17.445 117.1-48.504 31.055-31.055 48.504-73.176 48.504-117.1 0-43.918-17.449-86.039-48.504-117.09-31.055-31.059-73.176-48.504-117.1-48.504-43.918 0-86.039 17.445-117.1 48.504-31.055 31.055-48.5 73.176-48.5 117.09 0 43.922 17.445 86.043 48.5 117.1 31.059 31.059 73.18 48.504 117.1 48.504z"/>
 <path d="m1003.2 55.199h-469.2c-9.5469 0-18.703 3.793-25.457 10.547-6.75 6.75-10.543 15.906-10.543 25.453v316.8c0 9.5469 3.793 18.703 10.543 25.457 6.7539 6.75 15.91 10.543 25.457 10.543h172.8v98.398c0.007813 6.7734 1.9258 13.406 5.5352 19.137 3.6094 5.7344 8.7617 10.328 14.863 13.266l15.602 3.6016v-0.003906c8.3438-0.070313 16.402-3.0391 22.801-8.3984l151.2-126h86.398c9.5469 0 18.707-3.793 25.457-10.543 6.75-6.7539 10.543-15.91 10.543-25.457v-316.8c0-9.5469-3.793-18.703-10.543-25.453-6.75-6.7539-15.91-10.547-25.457-10.547zm-241.2 313.2c-8.3359 0.32422-16.453-2.707-22.539-8.4141-6.0859-5.707-9.6328-13.613-9.8516-21.953-0.21484-8.3398 2.918-16.418 8.6992-22.434 5.7852-6.0117 13.734-9.4609 22.074-9.5703 8.3438-0.11328 16.383 3.1211 22.324 8.9805 5.9414 5.8555 9.2852 13.848 9.293 22.191 0.32812 8.1641-2.6875 16.105-8.3516 21.992-5.6602 5.8906-13.48 9.2148-21.648 9.207zm37.199-123.6v0.003906c-8.1445 8.2891-12.488 19.586-12 31.199v21.602h-48v-20.402c-1.457-21.195 5.9258-42.047 20.402-57.598 8.6328-7.4766 14.539-17.605 16.797-28.801 0-3.6016 0-9.6016-13.199-10.801-6.8398 0.13672-13.5 2.2148-19.199 6l-14.398 10.801-16.801-44.398 8.3984-6v-0.003906c14.328-9.0781 31.043-13.676 48-13.199 40.801 0 60 28.801 60 54s-14.398 39.602-30 57.602z"/>
</svg>
